<svg viewBox="0 0 32 32" xmlns="http://www.w3.org/2000/svg">
  <defs>
    <linearGradient id="fusionGradient" x1="0%" y1="100%" x2="100%" y2="0%">
      <stop offset="0%" style="stop-color:#3B82F6;stop-opacity:1" />
      <stop offset="30%" style="stop-color:#8B5CF6;stop-opacity:1" />
      <stop offset="60%" style="stop-color:#F59E0B;stop-opacity:1" />
      <stop offset="100%" style="stop-color:#EF4444;stop-opacity:1" />
    </linearGradient>
  </defs>
  
  <!-- Main circuit/neural network paths -->
  <path d="M6 8 Q16 4 26 8 Q24 16 26 24 Q16 28 6 24 Q8 16 6 8" 
        stroke="url(#fusionGradient)" 
        stroke-width="2.5" 
        fill="none" 
        stroke-linecap="round" />
  
  <!-- Central connecting lines -->
  <path d="M16 6 L16 12" 
        stroke="url(#fusionGradient)" 
        stroke-width="2" 
        fill="none" />
  <path d="M16 20 L16 26" 
        stroke="url(#fusionGradient)" 
        stroke-width="2" 
        fill="none" />
  <path d="M6 16 L12 16" 
        stroke="url(#fusionGradient)" 
        stroke-width="2" 
        fill="none" />
  <path d="M20 16 L26 16" 
        stroke="url(#fusionGradient)" 
        stroke-width="2" 
        fill="none" />
  
  <!-- Circuit nodes -->
  <circle cx="6" cy="8" r="2.5" fill="#3B82F6" />
  <circle cx="26" cy="8" r="2.5" fill="#EF4444" />
  <circle cx="26" cy="24" r="2.5" fill="#F59E0B" />
  <circle cx="6" cy="24" r="2.5" fill="#8B5CF6" />
  <circle cx="16" cy="16" r="3" fill="url(#fusionGradient)" />
  
  <!-- Additional connection points -->
  <circle cx="16" cy="6" r="1.5" fill="url(#fusionGradient)" />
  <circle cx="16" cy="26" r="1.5" fill="url(#fusionGradient)" />
  <circle cx="6" cy="16" r="1.5" fill="url(#fusionGradient)" />
  <circle cx="26" cy="16" r="1.5" fill="url(#fusionGradient)" />
</svg>
